<?xml version="1.0" encoding="UTF-8" standalone="no"?>
<!-- Created with Inkscape (http://www.inkscape.org/) -->

<svg
   xmlns:dc="http://purl.org/dc/elements/1.1/"
   xmlns:cc="http://creativecommons.org/ns#"
   xmlns:rdf="http://www.w3.org/1999/02/22-rdf-syntax-ns#"
   xmlns:svg="http://www.w3.org/2000/svg"
   xmlns="http://www.w3.org/2000/svg"
   xmlns:sodipodi="http://sodipodi.sourceforge.net/DTD/sodipodi-0.dtd"
   xmlns:inkscape="http://www.inkscape.org/namespaces/inkscape"
   width="192mm"
   height="192mm"
   viewBox="0 0 192 192"
   version="1.1"
   id="svg8"
   inkscape:version="0.92.4 (5da689c313, 2019-01-14)"
   sodipodi:docname="icon.svg"
   inkscape:export-filename="C:\Users\euphs\source\pages\roy-n-roy.github.io\docs\imgs\icon_152.png"
   inkscape:export-xdpi="20.108334"
   inkscape:export-ydpi="20.108334">
  <defs
     id="defs2" />
  <sodipodi:namedview
     id="base"
     pagecolor="#ffffff"
     bordercolor="#666666"
     borderopacity="1.0"
     inkscape:pageopacity="0.0"
     inkscape:pageshadow="2"
     inkscape:zoom="0.7"
     inkscape:cx="308.57321"
     inkscape:cy="64.671367"
     inkscape:document-units="mm"
     inkscape:current-layer="layer1"
     showgrid="false"
     inkscape:window-width="2560"
     inkscape:window-height="1377"
     inkscape:window-x="-8"
     inkscape:window-y="-8"
     inkscape:window-maximized="1"
     fit-margin-top="0"
     fit-margin-left="0"
     fit-margin-right="0"
     fit-margin-bottom="0" />
  <metadata
     id="metadata5">
    <rdf:RDF>
      <cc:Work
         rdf:about="">
        <dc:format>image/svg+xml</dc:format>
        <dc:type
           rdf:resource="http://purl.org/dc/dcmitype/StillImage" />
        <dc:title></dc:title>
      </cc:Work>
    </rdf:RDF>
  </metadata>
  <g
     inkscape:label="レイヤー 1"
     inkscape:groupmode="layer"
     id="layer1"
     transform="translate(-0.50081834,24.05861)">
    <path
       style="opacity:1;fill:#000000;fill-opacity:1;stroke-width:0.26458332"
       mask="none"
       d="M 28.899083,1.7107109 V 112.2993 l 30.373341,4.30206 -0.636138,4.4912 -29.737203,-4.21214 v 14.69574 l 30.373341,4.30206 -0.636138,4.4912 -29.737203,-4.21214 v 30.72577 H 164.93883 v -30.75213 l -29.92272,4.2385 -0.63614,-4.4912 30.55886,-4.32841 v -14.69575 l -29.92272,4.2385 -0.63614,-4.4912 30.55886,-4.32841 V 1.7107109 h -5.2e-4 L 97.0696,69.579951 29.200356,1.7107109 Z M 164.93883,112.27295 v 4.58111 l 30.32993,-4.29638 -0.63614,-4.49068 z m 0,19.27686 v 4.58111 l 30.32993,-4.29638 -0.63614,-4.49068 z m -136.039747,4.60747 v -4.58112 l -29.87879443,-4.2323 -0.63613697,4.49068 z m 0,-19.27686 v -4.58112 l -29.87879443,-4.2323 -0.63613697,4.49068 z"
       id="rect3713"
       inkscape:connector-curvature="0" />
  </g>
</svg>
